<mxfile host="Electron" modified="2024-03-26T23:24:40.477Z" agent="Mozilla/5.0 (Windows NT 10.0; Win64; x64) AppleWebKit/537.36 (KHTML, like Gecko) draw.io/24.1.0 Chrome/120.0.6099.109 Electron/28.1.0 Safari/537.36" etag="mpbdMKDhQh3W2dUXQuTQ" version="24.1.0" type="device">
  <diagram name="Página-1" id="SK-Eikx-rmK9Pd9pOURB">
    <mxGraphModel dx="1434" dy="836" grid="1" gridSize="10" guides="1" tooltips="1" connect="1" arrows="1" fold="1" page="1" pageScale="1" pageWidth="827" pageHeight="1169" math="0" shadow="0">
      <root>
        <mxCell id="0" />
        <mxCell id="1" parent="0" />
        <mxCell id="FH9r36qfjTQBqCCLZJ8f-6" style="rounded=0;orthogonalLoop=1;jettySize=auto;html=1;entryX=0;entryY=0.5;entryDx=0;entryDy=0;shape=link;width=0;" edge="1" parent="1" source="FH9r36qfjTQBqCCLZJ8f-1" target="FH9r36qfjTQBqCCLZJ8f-2">
          <mxGeometry relative="1" as="geometry" />
        </mxCell>
        <mxCell id="FH9r36qfjTQBqCCLZJ8f-1" value="Cliente" style="shape=umlActor;verticalLabelPosition=bottom;verticalAlign=top;html=1;outlineConnect=0;" vertex="1" parent="1">
          <mxGeometry x="60" y="230" width="30" height="60" as="geometry" />
        </mxCell>
        <mxCell id="FH9r36qfjTQBqCCLZJ8f-11" style="rounded=0;orthogonalLoop=1;jettySize=auto;html=1;exitX=1;exitY=0.5;exitDx=0;exitDy=0;dashed=1;endArrow=open;endFill=0;" edge="1" parent="1" source="FH9r36qfjTQBqCCLZJ8f-2" target="FH9r36qfjTQBqCCLZJ8f-9">
          <mxGeometry relative="1" as="geometry" />
        </mxCell>
        <mxCell id="FH9r36qfjTQBqCCLZJ8f-13" value="&amp;lt;&amp;lt;extend&amp;gt;&amp;gt;" style="edgeLabel;html=1;align=center;verticalAlign=middle;resizable=0;points=[];" vertex="1" connectable="0" parent="FH9r36qfjTQBqCCLZJ8f-11">
          <mxGeometry x="-0.06" y="4" relative="1" as="geometry">
            <mxPoint y="-5" as="offset" />
          </mxGeometry>
        </mxCell>
        <mxCell id="FH9r36qfjTQBqCCLZJ8f-2" value="Inicio sesion en sistema" style="ellipse;whiteSpace=wrap;html=1;" vertex="1" parent="1">
          <mxGeometry x="120" y="120" width="120" height="80" as="geometry" />
        </mxCell>
        <mxCell id="FH9r36qfjTQBqCCLZJ8f-16" style="rounded=0;orthogonalLoop=1;jettySize=auto;html=1;entryX=0;entryY=0.5;entryDx=0;entryDy=0;dashed=1;endArrow=open;endFill=0;" edge="1" parent="1" source="FH9r36qfjTQBqCCLZJ8f-3" target="FH9r36qfjTQBqCCLZJ8f-15">
          <mxGeometry relative="1" as="geometry" />
        </mxCell>
        <mxCell id="FH9r36qfjTQBqCCLZJ8f-17" value="&amp;lt;&amp;lt;extend&amp;gt;&amp;gt;" style="edgeLabel;html=1;align=center;verticalAlign=middle;resizable=0;points=[];" vertex="1" connectable="0" parent="FH9r36qfjTQBqCCLZJ8f-16">
          <mxGeometry x="-0.02" y="-1" relative="1" as="geometry">
            <mxPoint y="-9" as="offset" />
          </mxGeometry>
        </mxCell>
        <mxCell id="FH9r36qfjTQBqCCLZJ8f-3" value="Selecciona productos disponibles" style="ellipse;whiteSpace=wrap;html=1;" vertex="1" parent="1">
          <mxGeometry x="120" y="240" width="120" height="80" as="geometry" />
        </mxCell>
        <mxCell id="FH9r36qfjTQBqCCLZJ8f-27" style="rounded=0;orthogonalLoop=1;jettySize=auto;html=1;dashed=1;endArrow=open;endFill=0;" edge="1" parent="1" source="FH9r36qfjTQBqCCLZJ8f-4" target="FH9r36qfjTQBqCCLZJ8f-24">
          <mxGeometry relative="1" as="geometry" />
        </mxCell>
        <mxCell id="FH9r36qfjTQBqCCLZJ8f-28" value="&amp;lt;&amp;lt;include&amp;gt;&amp;gt;" style="edgeLabel;html=1;align=center;verticalAlign=middle;resizable=0;points=[];" vertex="1" connectable="0" parent="FH9r36qfjTQBqCCLZJ8f-27">
          <mxGeometry x="-0.05" y="1" relative="1" as="geometry">
            <mxPoint x="21" y="-8" as="offset" />
          </mxGeometry>
        </mxCell>
        <mxCell id="FH9r36qfjTQBqCCLZJ8f-4" value="Confirmación de pedido" style="ellipse;whiteSpace=wrap;html=1;" vertex="1" parent="1">
          <mxGeometry x="120" y="370" width="120" height="80" as="geometry" />
        </mxCell>
        <mxCell id="FH9r36qfjTQBqCCLZJ8f-7" style="rounded=0;orthogonalLoop=1;jettySize=auto;html=1;entryX=0;entryY=0.5;entryDx=0;entryDy=0;shape=link;width=0;" edge="1" parent="1" source="FH9r36qfjTQBqCCLZJ8f-1" target="FH9r36qfjTQBqCCLZJ8f-3">
          <mxGeometry relative="1" as="geometry">
            <mxPoint x="110" y="250" as="sourcePoint" />
            <mxPoint x="190" y="170" as="targetPoint" />
          </mxGeometry>
        </mxCell>
        <mxCell id="FH9r36qfjTQBqCCLZJ8f-8" style="rounded=0;orthogonalLoop=1;jettySize=auto;html=1;entryX=0;entryY=0.5;entryDx=0;entryDy=0;shape=link;width=0;" edge="1" parent="1" target="FH9r36qfjTQBqCCLZJ8f-4">
          <mxGeometry relative="1" as="geometry">
            <mxPoint x="90" y="310" as="sourcePoint" />
            <mxPoint x="190" y="290" as="targetPoint" />
          </mxGeometry>
        </mxCell>
        <mxCell id="FH9r36qfjTQBqCCLZJ8f-12" style="rounded=0;orthogonalLoop=1;jettySize=auto;html=1;entryX=1;entryY=0.5;entryDx=0;entryDy=0;dashed=1;endArrow=open;endFill=0;" edge="1" parent="1" source="FH9r36qfjTQBqCCLZJ8f-9" target="FH9r36qfjTQBqCCLZJ8f-3">
          <mxGeometry relative="1" as="geometry" />
        </mxCell>
        <mxCell id="FH9r36qfjTQBqCCLZJ8f-14" value="&amp;lt;&amp;lt;extend&amp;gt;&amp;gt;" style="edgeLabel;html=1;align=center;verticalAlign=middle;resizable=0;points=[];" vertex="1" connectable="0" parent="FH9r36qfjTQBqCCLZJ8f-12">
          <mxGeometry x="-0.0947" relative="1" as="geometry">
            <mxPoint x="26" y="11" as="offset" />
          </mxGeometry>
        </mxCell>
        <mxCell id="FH9r36qfjTQBqCCLZJ8f-9" value="Sistema muestra catalogo de opciones" style="ellipse;whiteSpace=wrap;html=1;" vertex="1" parent="1">
          <mxGeometry x="280" y="180" width="120" height="80" as="geometry" />
        </mxCell>
        <mxCell id="FH9r36qfjTQBqCCLZJ8f-19" style="edgeStyle=orthogonalEdgeStyle;rounded=0;orthogonalLoop=1;jettySize=auto;html=1;dashed=1;endArrow=open;endFill=0;" edge="1" parent="1" source="FH9r36qfjTQBqCCLZJ8f-15" target="FH9r36qfjTQBqCCLZJ8f-18">
          <mxGeometry relative="1" as="geometry" />
        </mxCell>
        <mxCell id="FH9r36qfjTQBqCCLZJ8f-20" value="&amp;lt;&amp;lt;extend&amp;gt;&amp;gt;" style="edgeLabel;html=1;align=center;verticalAlign=middle;resizable=0;points=[];" vertex="1" connectable="0" parent="FH9r36qfjTQBqCCLZJ8f-19">
          <mxGeometry x="-0.4" y="-1" relative="1" as="geometry">
            <mxPoint x="9" y="-21" as="offset" />
          </mxGeometry>
        </mxCell>
        <mxCell id="FH9r36qfjTQBqCCLZJ8f-25" style="rounded=0;orthogonalLoop=1;jettySize=auto;html=1;dashed=1;endArrow=open;endFill=0;" edge="1" parent="1" source="FH9r36qfjTQBqCCLZJ8f-15" target="FH9r36qfjTQBqCCLZJ8f-24">
          <mxGeometry relative="1" as="geometry" />
        </mxCell>
        <mxCell id="FH9r36qfjTQBqCCLZJ8f-26" value="&amp;lt;&amp;lt;include&amp;gt;&amp;gt;" style="edgeLabel;html=1;align=center;verticalAlign=middle;resizable=0;points=[];" vertex="1" connectable="0" parent="FH9r36qfjTQBqCCLZJ8f-25">
          <mxGeometry x="-0.1403" y="3" relative="1" as="geometry">
            <mxPoint x="28" as="offset" />
          </mxGeometry>
        </mxCell>
        <mxCell id="FH9r36qfjTQBqCCLZJ8f-15" value="Hacer pago" style="ellipse;whiteSpace=wrap;html=1;" vertex="1" parent="1">
          <mxGeometry x="300" y="320" width="120" height="80" as="geometry" />
        </mxCell>
        <mxCell id="FH9r36qfjTQBqCCLZJ8f-18" value="Calcular recargo" style="ellipse;whiteSpace=wrap;html=1;" vertex="1" parent="1">
          <mxGeometry x="510" y="320" width="120" height="80" as="geometry" />
        </mxCell>
        <mxCell id="FH9r36qfjTQBqCCLZJ8f-21" value="Identificar y autenticar" style="ellipse;whiteSpace=wrap;html=1;" vertex="1" parent="1">
          <mxGeometry x="430" y="90" width="120" height="80" as="geometry" />
        </mxCell>
        <mxCell id="FH9r36qfjTQBqCCLZJ8f-22" style="rounded=0;orthogonalLoop=1;jettySize=auto;html=1;entryX=0;entryY=0.5;entryDx=0;entryDy=0;dashed=1;endArrow=open;endFill=0;" edge="1" parent="1" source="FH9r36qfjTQBqCCLZJ8f-2" target="FH9r36qfjTQBqCCLZJ8f-21">
          <mxGeometry relative="1" as="geometry">
            <mxPoint x="430.96000000000004" y="128" as="targetPoint" />
          </mxGeometry>
        </mxCell>
        <mxCell id="FH9r36qfjTQBqCCLZJ8f-23" value="&amp;lt;&amp;lt;include&amp;gt;&amp;gt;" style="edgeLabel;html=1;align=center;verticalAlign=middle;resizable=0;points=[];" vertex="1" connectable="0" parent="FH9r36qfjTQBqCCLZJ8f-22">
          <mxGeometry x="-0.0159" relative="1" as="geometry">
            <mxPoint x="-32" y="-6" as="offset" />
          </mxGeometry>
        </mxCell>
        <mxCell id="FH9r36qfjTQBqCCLZJ8f-24" value="Obtener pedido" style="ellipse;whiteSpace=wrap;html=1;" vertex="1" parent="1">
          <mxGeometry x="280" y="450" width="120" height="80" as="geometry" />
        </mxCell>
        <mxCell id="FH9r36qfjTQBqCCLZJ8f-33" style="edgeStyle=orthogonalEdgeStyle;rounded=0;orthogonalLoop=1;jettySize=auto;html=1;entryX=1;entryY=0.5;entryDx=0;entryDy=0;dashed=1;endArrow=open;endFill=0;" edge="1" parent="1" source="FH9r36qfjTQBqCCLZJ8f-32" target="FH9r36qfjTQBqCCLZJ8f-24">
          <mxGeometry relative="1" as="geometry" />
        </mxCell>
        <mxCell id="FH9r36qfjTQBqCCLZJ8f-34" value="&amp;lt;&amp;lt;extend&amp;gt;&amp;gt;" style="edgeLabel;html=1;align=center;verticalAlign=middle;resizable=0;points=[];" vertex="1" connectable="0" parent="FH9r36qfjTQBqCCLZJ8f-33">
          <mxGeometry y="3" relative="1" as="geometry">
            <mxPoint x="5" y="-23" as="offset" />
          </mxGeometry>
        </mxCell>
        <mxCell id="FH9r36qfjTQBqCCLZJ8f-32" value="Ver pedido" style="ellipse;whiteSpace=wrap;html=1;" vertex="1" parent="1">
          <mxGeometry x="500" y="450" width="120" height="80" as="geometry" />
        </mxCell>
        <mxCell id="FH9r36qfjTQBqCCLZJ8f-35" value="Cocina" style="shape=umlActor;verticalLabelPosition=bottom;verticalAlign=top;html=1;outlineConnect=0;" vertex="1" parent="1">
          <mxGeometry x="730" y="460" width="30" height="60" as="geometry" />
        </mxCell>
        <mxCell id="FH9r36qfjTQBqCCLZJ8f-36" style="rounded=0;orthogonalLoop=1;jettySize=auto;html=1;exitX=0;exitY=0.3333333333333333;exitDx=0;exitDy=0;exitPerimeter=0;entryX=1.017;entryY=0.588;entryDx=0;entryDy=0;entryPerimeter=0;endArrow=none;endFill=0;" edge="1" parent="1" source="FH9r36qfjTQBqCCLZJ8f-35" target="FH9r36qfjTQBqCCLZJ8f-32">
          <mxGeometry relative="1" as="geometry" />
        </mxCell>
        <mxCell id="FH9r36qfjTQBqCCLZJ8f-39" style="rounded=0;orthogonalLoop=1;jettySize=auto;html=1;entryX=1;entryY=0;entryDx=0;entryDy=0;endArrow=none;endFill=0;" edge="1" parent="1" source="FH9r36qfjTQBqCCLZJ8f-38" target="FH9r36qfjTQBqCCLZJ8f-18">
          <mxGeometry relative="1" as="geometry" />
        </mxCell>
        <mxCell id="FH9r36qfjTQBqCCLZJ8f-38" value="Sist. Pasarela de pago" style="shape=umlActor;verticalLabelPosition=bottom;verticalAlign=top;html=1;outlineConnect=0;" vertex="1" parent="1">
          <mxGeometry x="720" y="270" width="30" height="60" as="geometry" />
        </mxCell>
        <mxCell id="FH9r36qfjTQBqCCLZJ8f-42" value="&lt;h1 style=&quot;margin-top: 0px;&quot;&gt;Caso de uso cliente&lt;/h1&gt;&lt;p&gt;Cliente realiza un pedido a cocina.&lt;/p&gt;" style="text;html=1;whiteSpace=wrap;overflow=hidden;rounded=0;" vertex="1" parent="1">
          <mxGeometry x="20" y="10" width="420" height="80" as="geometry" />
        </mxCell>
        <mxCell id="FH9r36qfjTQBqCCLZJ8f-43" value="&lt;h1 style=&quot;margin-top: 0px;&quot;&gt;Caso de uso cocina&lt;/h1&gt;&lt;p&gt;Cocina recibe un nuevo pedido de un cliente.&lt;/p&gt;" style="text;html=1;whiteSpace=wrap;overflow=hidden;rounded=0;" vertex="1" parent="1">
          <mxGeometry x="20" y="570" width="420" height="80" as="geometry" />
        </mxCell>
        <mxCell id="FH9r36qfjTQBqCCLZJ8f-46" style="rounded=0;orthogonalLoop=1;jettySize=auto;html=1;endArrow=none;endFill=0;" edge="1" parent="1" target="FH9r36qfjTQBqCCLZJ8f-45">
          <mxGeometry relative="1" as="geometry">
            <mxPoint x="70" y="780" as="sourcePoint" />
          </mxGeometry>
        </mxCell>
        <mxCell id="FH9r36qfjTQBqCCLZJ8f-48" style="rounded=0;orthogonalLoop=1;jettySize=auto;html=1;entryX=0;entryY=0.5;entryDx=0;entryDy=0;endArrow=none;endFill=0;" edge="1" parent="1" source="FH9r36qfjTQBqCCLZJ8f-44" target="FH9r36qfjTQBqCCLZJ8f-47">
          <mxGeometry relative="1" as="geometry" />
        </mxCell>
        <mxCell id="FH9r36qfjTQBqCCLZJ8f-44" value="Cocina" style="shape=umlActor;verticalLabelPosition=bottom;verticalAlign=top;html=1;outlineConnect=0;" vertex="1" parent="1">
          <mxGeometry x="40" y="750" width="30" height="60" as="geometry" />
        </mxCell>
        <mxCell id="FH9r36qfjTQBqCCLZJ8f-51" style="rounded=0;orthogonalLoop=1;jettySize=auto;html=1;exitX=1;exitY=0.5;exitDx=0;exitDy=0;dashed=1;" edge="1" parent="1" source="FH9r36qfjTQBqCCLZJ8f-45" target="FH9r36qfjTQBqCCLZJ8f-49">
          <mxGeometry relative="1" as="geometry" />
        </mxCell>
        <mxCell id="FH9r36qfjTQBqCCLZJ8f-52" style="rounded=0;orthogonalLoop=1;jettySize=auto;html=1;dashed=1;" edge="1" parent="1" source="FH9r36qfjTQBqCCLZJ8f-45" target="FH9r36qfjTQBqCCLZJ8f-50">
          <mxGeometry relative="1" as="geometry" />
        </mxCell>
        <mxCell id="FH9r36qfjTQBqCCLZJ8f-53" value="&amp;lt;&amp;lt;include&amp;gt;&amp;gt;" style="edgeLabel;html=1;align=center;verticalAlign=middle;resizable=0;points=[];" vertex="1" connectable="0" parent="FH9r36qfjTQBqCCLZJ8f-52">
          <mxGeometry x="-0.2553" y="-2" relative="1" as="geometry">
            <mxPoint x="16" as="offset" />
          </mxGeometry>
        </mxCell>
        <mxCell id="FH9r36qfjTQBqCCLZJ8f-45" value="Comenzar pedido" style="ellipse;whiteSpace=wrap;html=1;" vertex="1" parent="1">
          <mxGeometry x="120" y="680" width="120" height="80" as="geometry" />
        </mxCell>
        <mxCell id="FH9r36qfjTQBqCCLZJ8f-58" style="rounded=0;orthogonalLoop=1;jettySize=auto;html=1;endArrow=open;endFill=0;dashed=1;" edge="1" parent="1" source="FH9r36qfjTQBqCCLZJ8f-47" target="FH9r36qfjTQBqCCLZJ8f-55">
          <mxGeometry relative="1" as="geometry" />
        </mxCell>
        <mxCell id="FH9r36qfjTQBqCCLZJ8f-60" value="&amp;lt;&amp;lt;include&amp;gt;&amp;gt;" style="edgeLabel;html=1;align=center;verticalAlign=middle;resizable=0;points=[];" vertex="1" connectable="0" parent="FH9r36qfjTQBqCCLZJ8f-58">
          <mxGeometry x="-0.0422" y="-1" relative="1" as="geometry">
            <mxPoint y="-9" as="offset" />
          </mxGeometry>
        </mxCell>
        <mxCell id="FH9r36qfjTQBqCCLZJ8f-47" value="Finalizar pedido" style="ellipse;whiteSpace=wrap;html=1;" vertex="1" parent="1">
          <mxGeometry x="120" y="820" width="120" height="80" as="geometry" />
        </mxCell>
        <mxCell id="FH9r36qfjTQBqCCLZJ8f-49" value="Identificar y autenticar usuario" style="ellipse;whiteSpace=wrap;html=1;" vertex="1" parent="1">
          <mxGeometry x="390" y="640" width="120" height="80" as="geometry" />
        </mxCell>
        <mxCell id="FH9r36qfjTQBqCCLZJ8f-50" value="Seleccionar pedido" style="ellipse;whiteSpace=wrap;html=1;" vertex="1" parent="1">
          <mxGeometry x="390" y="730" width="120" height="80" as="geometry" />
        </mxCell>
        <mxCell id="FH9r36qfjTQBqCCLZJ8f-54" value="&amp;lt;&amp;lt;include&amp;gt;&amp;gt;" style="edgeLabel;html=1;align=center;verticalAlign=middle;resizable=0;points=[];" vertex="1" connectable="0" parent="1">
          <mxGeometry x="319.9989732087681" y="700.0029183285658" as="geometry" />
        </mxCell>
        <mxCell id="FH9r36qfjTQBqCCLZJ8f-55" value="Confirmar productos pedidos" style="ellipse;whiteSpace=wrap;html=1;" vertex="1" parent="1">
          <mxGeometry x="380" y="830" width="120" height="80" as="geometry" />
        </mxCell>
        <mxCell id="FH9r36qfjTQBqCCLZJ8f-66" style="rounded=0;orthogonalLoop=1;jettySize=auto;html=1;endArrow=open;endFill=0;dashed=1;" edge="1" parent="1" source="FH9r36qfjTQBqCCLZJ8f-56" target="FH9r36qfjTQBqCCLZJ8f-64">
          <mxGeometry relative="1" as="geometry" />
        </mxCell>
        <mxCell id="FH9r36qfjTQBqCCLZJ8f-67" value="&amp;lt;&amp;lt;include&amp;gt;&amp;gt;" style="edgeLabel;html=1;align=center;verticalAlign=middle;resizable=0;points=[];" vertex="1" connectable="0" parent="FH9r36qfjTQBqCCLZJ8f-66">
          <mxGeometry x="-0.0828" y="4" relative="1" as="geometry">
            <mxPoint as="offset" />
          </mxGeometry>
        </mxCell>
        <mxCell id="FH9r36qfjTQBqCCLZJ8f-56" value="Enviar notificación" style="ellipse;whiteSpace=wrap;html=1;" vertex="1" parent="1">
          <mxGeometry x="370" y="920" width="120" height="80" as="geometry" />
        </mxCell>
        <mxCell id="FH9r36qfjTQBqCCLZJ8f-62" style="rounded=0;orthogonalLoop=1;jettySize=auto;html=1;dashed=1;endArrow=open;endFill=0;" edge="1" parent="1" source="FH9r36qfjTQBqCCLZJ8f-57" target="FH9r36qfjTQBqCCLZJ8f-47">
          <mxGeometry relative="1" as="geometry" />
        </mxCell>
        <mxCell id="FH9r36qfjTQBqCCLZJ8f-63" value="&amp;lt;&amp;lt;extend&amp;gt;&amp;gt;" style="edgeLabel;html=1;align=center;verticalAlign=middle;resizable=0;points=[];" vertex="1" connectable="0" parent="FH9r36qfjTQBqCCLZJ8f-62">
          <mxGeometry x="-0.0246" y="4" relative="1" as="geometry">
            <mxPoint as="offset" />
          </mxGeometry>
        </mxCell>
        <mxCell id="FH9r36qfjTQBqCCLZJ8f-57" value="Actualizar pantalla de pedidos" style="ellipse;whiteSpace=wrap;html=1;" vertex="1" parent="1">
          <mxGeometry x="270" y="1000" width="120" height="80" as="geometry" />
        </mxCell>
        <mxCell id="FH9r36qfjTQBqCCLZJ8f-59" style="rounded=0;orthogonalLoop=1;jettySize=auto;html=1;entryX=0;entryY=0.388;entryDx=0;entryDy=0;entryPerimeter=0;dashed=1;endArrow=open;endFill=0;" edge="1" parent="1" source="FH9r36qfjTQBqCCLZJ8f-47" target="FH9r36qfjTQBqCCLZJ8f-56">
          <mxGeometry relative="1" as="geometry" />
        </mxCell>
        <mxCell id="FH9r36qfjTQBqCCLZJ8f-61" value="&amp;lt;&amp;lt;include&amp;gt;&amp;gt;" style="edgeLabel;html=1;align=center;verticalAlign=middle;resizable=0;points=[];" vertex="1" connectable="0" parent="1">
          <mxGeometry x="300.0041953892459" y="910.0002362534515" as="geometry" />
        </mxCell>
        <mxCell id="FH9r36qfjTQBqCCLZJ8f-65" style="rounded=0;orthogonalLoop=1;jettySize=auto;html=1;endArrow=none;endFill=0;" edge="1" parent="1" source="FH9r36qfjTQBqCCLZJ8f-64" target="FH9r36qfjTQBqCCLZJ8f-57">
          <mxGeometry relative="1" as="geometry" />
        </mxCell>
        <mxCell id="FH9r36qfjTQBqCCLZJ8f-64" value="SIA Tacogos" style="shape=umlActor;verticalLabelPosition=bottom;verticalAlign=top;html=1;outlineConnect=0;" vertex="1" parent="1">
          <mxGeometry x="560" y="1010" width="30" height="60" as="geometry" />
        </mxCell>
      </root>
    </mxGraphModel>
  </diagram>
</mxfile>
